<svg width="44" height="58" viewBox="0 0 44 58" fill="none" xmlns="http://www.w3.org/2000/svg">
<path fill-rule="evenodd" clip-rule="evenodd" d="M12.3791 9.73926C12.3791 7.15625 13.3927 4.67903 15.1969 2.85256C17.0012 1.0261 19.4483 0 21.9999 0C24.5516 0 26.9987 1.0261 28.8029 2.85256C30.6072 4.67903 31.6208 7.15625 31.6208 9.73926C31.6208 12.3223 30.6072 14.7995 28.8029 16.626C26.9987 18.4524 24.5516 19.4785 21.9999 19.4785C19.4483 19.4785 17.0012 18.4524 15.1969 16.626C13.3927 14.7995 12.3791 12.3223 12.3791 9.73926ZM3.07401 25.6923C5.03246 23.8103 7.62982 22.761 10.3302 22.761C13.0306 22.761 15.6279 23.8103 17.5864 25.6923L17.6279 25.7344L21.9999 30.1602L26.3761 25.7344L26.4177 25.6923C28.3757 23.8127 30.9713 22.765 33.6697 22.765C36.3681 22.765 38.9637 23.8127 40.9217 25.6923C41.8932 26.6267 42.6671 27.7511 43.1962 28.9975C43.7254 30.2438 43.9988 31.586 44 32.9425C44.0012 34.2991 43.73 35.6417 43.203 36.889C42.676 38.1362 41.9041 39.262 40.9342 40.1981L23.4462 57.4049C23.0583 57.7865 22.5388 58 21.9979 58C21.457 58 20.9374 57.7865 20.5495 57.4049L3.0657 40.1981C2.09618 39.2624 1.32453 38.137 0.797541 36.8903C0.270556 35.6436 -0.000775568 34.3016 1.66507e-06 32.9455C0.000778899 31.5895 0.273649 30.2477 0.802062 29.0016C1.33048 27.7556 2.10342 26.6269 3.07401 25.6923Z" fill="white"/>
</svg>
