<svg width="316" height="237" viewBox="0 0 316 237" fill="none" xmlns="http://www.w3.org/2000/svg">
<g clip-path="url(#clip0_15_420)">
<path d="M252.904 56.214H251.607V20.6079C251.607 17.9016 251.075 15.2218 250.041 12.7216C249.007 10.2213 247.492 7.94953 245.582 6.03592C243.672 4.1223 241.404 2.60433 238.909 1.56869C236.413 0.533043 233.738 2.5611e-06 231.037 0H155.74C150.284 -1.20686e-05 145.052 2.17115 141.195 6.03587C137.337 9.90058 135.17 15.1423 135.17 20.6078V215.946C135.17 221.411 137.337 226.653 141.195 230.518C145.052 234.382 150.284 236.554 155.74 236.554H231.037C236.492 236.554 241.724 234.382 245.582 230.518C249.439 226.653 251.607 221.411 251.607 215.946V81.559H252.904L252.904 56.214Z" fill="#E6E6E6"/>
<path d="M247.228 20.7516V215.802C247.228 219.884 245.61 223.798 242.729 226.685C239.848 229.571 235.941 231.193 231.866 231.193H156.208C152.134 231.192 148.226 229.571 145.346 226.685C142.465 223.798 140.846 219.884 140.846 215.802V20.7516C140.846 16.6699 142.465 12.7553 145.346 9.86904C148.226 6.98279 152.134 5.36128 156.208 5.36121H165.386C164.935 6.47152 164.764 7.67585 164.886 8.86827C165.009 10.0607 165.422 11.2046 166.089 12.1995C166.757 13.1944 167.658 14.0097 168.714 14.5737C169.77 15.1377 170.948 15.4332 172.144 15.4341H215.281C216.478 15.4332 217.656 15.1377 218.711 14.5737C219.767 14.0097 220.669 13.1944 221.336 12.1995C222.003 11.2046 222.417 10.0607 222.539 8.86826C222.662 7.67585 222.49 6.47152 222.039 5.36121H231.866C235.941 5.36128 239.848 6.98279 242.729 9.86904C245.61 12.7553 247.228 16.6699 247.228 20.7516Z" fill="white"/>
<path d="M48.1526 194.489C47.5644 194.489 46.9959 194.276 46.5519 193.89L42.944 190.737C42.4585 190.311 42.161 189.71 42.1167 189.066C42.0723 188.421 42.2847 187.785 42.7073 187.297L68.9416 157.162C68.9936 157.101 69.0494 157.042 69.1087 156.988C69.5485 156.574 70.1262 156.339 70.7295 156.328C71.3328 156.317 71.9186 156.531 72.373 156.929L75.9836 160.081C76.2243 160.292 76.4213 160.548 76.5633 160.835C76.7052 161.121 76.7894 161.433 76.811 161.753L76.811 161.754C76.8329 162.073 76.7917 162.394 76.6897 162.697C76.5877 163.001 76.4269 163.281 76.2166 163.522L49.986 193.656C49.7574 193.918 49.4755 194.128 49.1593 194.271C48.8431 194.415 48.4998 194.489 48.1526 194.489Z" fill="#73CB1B"/>
<path d="M96.3488 163.139C96.096 163.138 95.8447 163.1 95.6033 163.024C95.2985 162.927 95.0159 162.771 94.7717 162.564C94.5275 162.357 94.3265 162.104 94.1803 161.819L91.9869 157.555C91.7374 157.073 91.6563 156.521 91.7567 155.987C91.857 155.453 92.133 154.969 92.5404 154.611C92.6892 154.477 92.8547 154.362 93.033 154.271L128.507 135.948C129.081 135.653 129.748 135.598 130.362 135.794C130.976 135.991 131.488 136.423 131.785 136.996L133.978 141.261C134.273 141.836 134.328 142.504 134.132 143.12C133.935 143.735 133.504 144.248 132.931 144.545L97.4582 162.867C97.1154 163.045 96.7349 163.139 96.3488 163.139Z" fill="#73CB1B"/>
<path d="M95.7097 164.173C95.2574 164.171 94.8144 164.044 94.4294 163.806C94.0444 163.568 93.7322 163.229 93.5272 162.825L91.3795 158.538C91.1192 158.02 91.0526 157.425 91.1919 156.862C91.2014 156.819 91.2156 156.772 91.2294 156.726L91.2423 156.684C91.2803 156.572 91.3177 156.412 91.361 156.227L91.3862 156.12C91.5449 155.43 91.7426 154.571 92.1395 154.213C92.189 154.167 92.2449 154.128 92.3054 154.097L107.88 144.639C108.167 144.49 108.482 144.4 108.805 144.375C109.128 144.349 109.452 144.389 109.76 144.49C110.371 144.695 110.877 145.133 111.168 145.709L115.101 153.83C115.388 154.408 115.436 155.077 115.232 155.689C115.028 156.302 114.591 156.809 114.015 157.099L96.7686 163.921C96.4403 164.087 96.0775 164.173 95.7097 164.173Z" fill="#2F2E41"/>
<path d="M84.0469 141.666C93.6365 141.666 101.41 133.878 101.41 124.271C101.41 114.663 93.6365 106.875 84.0469 106.875C74.4573 106.875 66.6834 114.663 66.6834 124.271C66.6834 133.878 74.4573 141.666 84.0469 141.666Z" fill="#73CB1B"/>
<path d="M79.6891 236.844H74.9004C74.2552 236.843 73.6368 236.586 73.1806 236.129C72.7244 235.672 72.4678 235.053 72.4671 234.406V193.773C72.4678 193.127 72.7244 192.507 73.1806 192.05C73.6368 191.593 74.2552 191.336 74.9004 191.336H79.6891C79.9906 191.335 80.2895 191.392 80.5698 191.503C81.0093 191.673 81.3898 191.967 81.6644 192.35C81.939 192.734 82.0957 193.189 82.1153 193.66C82.121 193.698 82.1234 193.736 82.1224 193.773V234.406C82.1217 235.053 81.8651 235.672 81.4089 236.129C80.9527 236.586 80.3342 236.843 79.6891 236.844Z" fill="#73CB1B"/>
<path d="M106.38 211.933C106.357 211.895 106.332 211.858 106.306 211.823C106.24 211.668 106.157 211.521 106.059 211.384L97.8963 199.943L91.1708 190.52H79.6988L80.5099 191.654L81.9537 193.679L86.4275 199.946L96.0147 213.38L87.1283 231.263C86.7649 231.991 87.3846 233.038 88.504 233.597L92.7898 235.736C93.2153 235.953 93.6846 236.071 94.1622 236.08C94.7656 236.08 95.2684 235.856 95.4794 235.43L106.526 213.198C106.613 212.992 106.646 212.768 106.62 212.546C106.594 212.325 106.512 212.113 106.38 211.933Z" fill="#73CB1B"/>
<path d="M67.3382 174.792C66.703 174.789 66.0939 174.537 65.6408 174.092L59.1434 167.849C58.7629 167.475 58.5167 166.986 58.4433 166.457C58.4255 166.348 58.4163 166.237 58.4158 166.126C58.4146 166 58.4241 165.875 58.4441 165.751C58.5171 165.238 58.7535 164.763 59.1181 164.396L72.9353 152.43C73.3097 152.043 74.2593 152.123 75.0971 152.194L75.2235 152.204C75.3779 152.221 75.533 152.23 75.6882 152.231C75.7455 152.237 75.8121 152.234 75.8734 152.237C76.4547 152.278 77.0025 152.525 77.4182 152.934L80.8281 156.302C81.287 156.756 81.5473 157.374 81.5519 158.02C81.5565 158.667 81.305 159.288 80.8526 159.749L69.0982 174.046C68.8704 174.283 68.597 174.472 68.2945 174.6C67.9919 174.728 67.6666 174.793 67.3382 174.792Z" fill="#2F2E41"/>
<path d="M83.3577 131.368L83.3396 130.718C84.5467 130.684 85.611 130.608 86.4106 130.023C86.6374 129.848 86.8237 129.625 86.957 129.371C87.0903 129.117 87.1675 128.838 87.1832 128.551C87.1973 128.376 87.1709 128.2 87.106 128.037C87.0411 127.874 86.9396 127.728 86.8092 127.61C86.2784 127.161 85.4242 127.307 84.8016 127.593L84.2647 127.839L85.2943 120.302L85.9371 120.39L85.0614 126.802C85.9074 126.552 86.6912 126.66 87.2281 127.114C87.4342 127.294 87.5959 127.52 87.7006 127.773C87.8053 128.026 87.8502 128.301 87.8316 128.574C87.8127 128.959 87.7099 129.335 87.5306 129.676C87.3512 130.017 87.0996 130.315 86.7934 130.548C85.7659 131.3 84.4306 131.338 83.3577 131.368Z" fill="#2F2E41"/>
<path d="M92.611 120.943H89.1164V121.593H92.611V120.943Z" fill="#2F2E41"/>
<path d="M81.5803 120.943H78.0856V121.593H81.5803V120.943Z" fill="#2F2E41"/>
<path d="M99.8073 200.108H68.9859C67.8034 200.108 66.8771 198.206 66.8771 195.777V165.33C66.878 161.599 68.0647 157.966 70.2651 154.956C72.4655 151.947 75.5653 149.717 79.1153 148.591C79.0681 148.377 79.044 148.159 79.0434 147.94C79.0444 147.122 79.3694 146.337 79.9472 145.758C80.525 145.179 81.3084 144.853 82.1256 144.852H86.6677C87.4848 144.853 88.2682 145.179 88.846 145.758C89.4238 146.337 89.7489 147.122 89.7498 147.94C89.7493 148.16 89.7251 148.378 89.6778 148.592C91.3927 149.134 93.0136 149.938 94.4827 150.977C94.7849 151.188 95.0829 151.414 95.3677 151.647C97.89 153.672 99.802 156.359 100.891 159.408C101.07 159.904 101.229 160.417 101.363 160.933L101.363 160.934C101.731 162.37 101.916 163.847 101.916 165.33V195.777C101.916 198.145 101.022 200.034 99.8752 200.1C99.8531 200.106 99.8302 200.109 99.8073 200.108Z" fill="#2F2E41"/>
<path d="M82.6122 211.16H70.2837C69.7246 211.159 69.1886 210.936 68.7932 210.54C68.3979 210.144 68.1755 209.607 68.1748 209.047V199.296C68.1755 198.736 68.3979 198.199 68.7932 197.803C69.1886 197.407 69.7246 197.184 70.2837 197.183H82.6122C83.1713 197.184 83.7073 197.407 84.1027 197.803C84.498 198.199 84.7204 198.736 84.721 199.296V209.047C84.7204 209.607 84.498 210.144 84.1027 210.54C83.7073 210.936 83.1713 211.159 82.6122 211.16Z" fill="#2F2E41"/>
<path d="M90.2108 211.38C89.7802 211.38 89.3598 211.248 89.0061 211.002C88.6524 210.756 88.3822 210.408 88.2317 210.003L84.8418 200.863C84.6477 200.338 84.6695 199.757 84.9024 199.247C85.1353 198.738 85.5603 198.342 86.0841 198.146L97.6408 193.845C98.1651 193.65 98.7449 193.672 99.2532 193.905C99.7615 194.139 100.157 194.564 100.352 195.089L103.742 204.23C103.936 204.755 103.914 205.336 103.681 205.845C103.448 206.355 103.024 206.75 102.5 206.946L90.943 211.248C90.7088 211.335 90.4608 211.38 90.2108 211.38Z" fill="#2F2E41"/>
<path d="M75.8836 116.043C79.1015 114.18 83.0038 115.609 86.3278 116.391C89.8793 117.226 93.6338 117.406 96.9813 115.719C99.7673 114.315 101.98 111.547 102.245 108.375C102.493 105.41 100.826 102.25 98.0064 101.138C95.1342 100.005 91.478 101.487 90.4305 104.44L91.32 104.324C87.8775 99.796 83.6341 95.1238 77.7129 94.2422C75.0563 93.8467 72.2209 94.2064 69.951 95.7262C67.8233 97.1507 66.4529 99.3506 65.6449 101.746C64.7075 104.525 64.4622 107.501 64.2926 110.412C64.256 111.039 65.2295 111.037 65.2659 110.412C65.5323 105.841 65.9645 100.328 69.6947 97.1346C71.6309 95.4769 74.2165 94.8998 76.7128 95.1001C79.3645 95.3128 81.823 96.414 83.9545 97.9719C86.5088 99.8389 88.5753 102.311 90.4795 104.816C90.53 104.896 90.6022 104.959 90.6875 104.999C90.7729 105.039 90.8679 105.054 90.9614 105.042C91.0548 105.03 91.1428 104.991 91.2151 104.93C91.2873 104.87 91.3407 104.79 91.369 104.699C92.2098 102.329 95.1605 101.224 97.4566 101.973C100.053 102.82 101.489 105.77 101.271 108.375C101.022 111.357 98.7438 113.865 96.1097 115.059C92.9363 116.498 89.4595 116.146 86.1755 115.352C82.6874 114.509 78.7477 113.258 75.3924 115.201C75.2856 115.268 75.2092 115.375 75.1792 115.498C75.1493 115.621 75.1682 115.75 75.2319 115.86C75.2956 115.969 75.3992 116.049 75.5208 116.083C75.6424 116.117 75.7725 116.103 75.8836 116.043Z" fill="#2F2E41"/>
<path d="M160.241 23.4517C158.878 23.4517 157.528 23.7207 156.268 24.2434C155.008 24.7661 153.864 25.5322 152.9 26.4981C151.936 27.4639 151.171 28.6105 150.649 29.8724C150.128 31.1343 149.859 32.4869 149.859 33.8528C149.859 35.2186 150.128 36.5712 150.649 37.8331C151.171 39.095 151.936 40.2416 152.9 41.2075C153.864 42.1733 155.008 42.9395 156.268 43.4622C157.528 43.9849 158.878 44.2539 160.241 44.2539C162.994 44.2539 165.635 43.1581 167.582 41.2075C169.529 39.2569 170.623 36.6113 170.623 33.8528C170.623 31.0942 169.529 28.4487 167.582 26.4981C165.635 24.5475 162.994 23.4517 160.241 23.4517Z" fill="#F2F2F2"/>
<path d="M235.62 42.6288H181.115C180.426 42.6288 179.766 42.3549 179.279 41.8672C178.793 41.3796 178.519 40.7182 178.519 40.0286C178.519 39.3389 178.793 38.6775 179.279 38.1899C179.766 37.7022 180.426 37.4283 181.115 37.4283H235.62C236.308 37.4283 236.968 37.7022 237.455 38.1899C237.942 38.6775 238.215 39.3389 238.215 40.0286C238.215 40.7182 237.942 41.3796 237.455 41.8672C236.968 42.3549 236.308 42.6288 235.62 42.6288Z" fill="#F2F2F2"/>
<path d="M198.31 31.5776H181.115C180.426 31.5776 179.766 31.3037 179.279 30.816C178.793 30.3284 178.519 29.667 178.519 28.9774C178.519 28.2877 178.793 27.6263 179.279 27.1387C179.766 26.651 180.426 26.3771 181.115 26.3771H198.31C198.998 26.3771 199.658 26.651 200.145 27.1387C200.632 27.6263 200.905 28.2877 200.905 28.9774C200.905 29.667 200.632 30.3284 200.145 30.816C199.658 31.3037 198.998 31.5776 198.31 31.5776Z" fill="#F2F2F2"/>
<path d="M160.241 67.0064C158.878 67.0064 157.528 67.2754 156.268 67.7981C155.008 68.3208 153.864 69.087 152.9 70.0528C151.936 71.0186 151.171 72.1652 150.649 73.4272C150.128 74.6891 149.859 76.0416 149.859 77.4075C149.859 78.7734 150.128 80.1259 150.649 81.3878C151.171 82.6498 151.936 83.7964 152.9 84.7622C153.864 85.7281 155.008 86.4942 156.268 87.0169C157.528 87.5396 158.878 87.8087 160.241 87.8087C162.994 87.8087 165.635 86.7129 167.582 84.7623C169.529 82.8117 170.623 80.1661 170.623 77.4075C170.623 74.649 169.529 72.0034 167.582 70.0528C165.635 68.1022 162.994 67.0064 160.241 67.0064Z" fill="#F2F2F2"/>
<path d="M235.62 86.1836H181.115C180.426 86.1836 179.766 85.9096 179.279 85.422C178.793 84.9343 178.519 84.273 178.519 83.5833C178.519 82.8937 178.793 82.2323 179.279 81.7446C179.766 81.257 180.426 80.983 181.115 80.983H235.62C236.308 80.983 236.968 81.257 237.455 81.7446C237.942 82.2323 238.215 82.8937 238.215 83.5833C238.215 84.273 237.942 84.9343 237.455 85.422C236.968 85.9096 236.308 86.1836 235.62 86.1836Z" fill="#F2F2F2"/>
<path d="M198.31 75.1323H181.115C180.426 75.1323 179.766 74.8584 179.279 74.3707C178.793 73.8831 178.519 73.2217 178.519 72.532C178.519 71.8424 178.793 71.181 179.279 70.6934C179.766 70.2057 180.426 69.9318 181.115 69.9318H198.31C198.998 69.9318 199.658 70.2057 200.145 70.6934C200.632 71.181 200.905 71.8424 200.905 72.532C200.905 73.2217 200.632 73.8831 200.145 74.3707C199.658 74.8584 198.998 75.1323 198.31 75.1323Z" fill="#F2F2F2"/>
<path d="M160.241 154.116C157.488 154.116 154.847 155.212 152.9 157.162C150.953 159.113 149.859 161.758 149.859 164.517C149.859 167.276 150.953 169.921 152.9 171.872C154.847 173.822 157.488 174.918 160.241 174.918C162.994 174.918 165.635 173.822 167.582 171.872C169.529 169.921 170.623 167.276 170.623 164.517C170.623 161.758 169.529 159.113 167.582 157.162C165.635 155.212 162.994 154.116 160.241 154.116Z" fill="#F2F2F2"/>
<path d="M235.62 173.293H181.115C180.426 173.293 179.766 173.019 179.279 172.531C178.793 172.044 178.519 171.382 178.519 170.693C178.519 170.003 178.793 169.342 179.279 168.854C179.766 168.366 180.426 168.093 181.115 168.093H235.62C236.308 168.093 236.968 168.366 237.455 168.854C237.942 169.342 238.215 170.003 238.215 170.693C238.215 171.382 237.942 172.044 237.455 172.531C236.968 173.019 236.308 173.293 235.62 173.293Z" fill="#F2F2F2"/>
<path d="M198.31 162.242H181.115C180.426 162.242 179.766 161.968 179.279 161.48C178.793 160.993 178.519 160.331 178.519 159.642C178.519 158.952 178.793 158.291 179.279 157.803C179.766 157.315 180.426 157.041 181.115 157.041H198.31C198.998 157.041 199.658 157.315 200.145 157.803C200.632 158.291 200.905 158.952 200.905 159.642C200.905 160.331 200.632 160.993 200.145 161.48C199.658 161.968 198.998 162.242 198.31 162.242Z" fill="#F2F2F2"/>
<path d="M160.241 197.671C158.878 197.671 157.528 197.94 156.268 198.462C155.008 198.985 153.864 199.751 152.9 200.717C151.936 201.683 151.171 202.829 150.649 204.091C150.128 205.353 149.859 206.706 149.859 208.072C149.859 209.438 150.128 210.79 150.649 212.052C151.171 213.314 151.936 214.461 152.9 215.426C153.864 216.392 155.008 217.158 156.268 217.681C157.528 218.204 158.878 218.473 160.241 218.473C162.994 218.473 165.635 217.377 167.582 215.426C169.529 213.476 170.623 210.83 170.623 208.072C170.623 205.313 169.529 202.668 167.582 200.717C165.635 198.766 162.994 197.671 160.241 197.671Z" fill="#F2F2F2"/>
<path d="M235.62 216.848H181.115C180.426 216.848 179.766 216.574 179.279 216.086C178.793 215.599 178.519 214.937 178.519 214.247C178.519 213.558 178.793 212.896 179.279 212.409C179.766 211.921 180.426 211.647 181.115 211.647H235.62C236.308 211.647 236.968 211.921 237.455 212.409C237.942 212.896 238.215 213.558 238.215 214.247C238.215 214.937 237.942 215.599 237.455 216.086C236.968 216.574 236.308 216.848 235.62 216.848Z" fill="#F2F2F2"/>
<path d="M198.31 205.797H181.115C180.426 205.797 179.766 205.523 179.279 205.035C178.793 204.547 178.519 203.886 178.519 203.196C178.519 202.507 178.793 201.845 179.279 201.358C179.766 200.87 180.426 200.596 181.115 200.596H198.31C198.998 200.596 199.658 200.87 200.145 201.358C200.632 201.845 200.905 202.507 200.905 203.196C200.905 203.886 200.632 204.547 200.145 205.035C199.658 205.523 198.998 205.797 198.31 205.797Z" fill="#F2F2F2"/>
<path d="M256.653 145.99H131.421C130.002 145.988 128.641 145.423 127.638 144.418C126.634 143.412 126.07 142.049 126.068 140.627V100.323C126.07 98.9007 126.634 97.5375 127.638 96.5321C128.641 95.5267 130.002 94.9611 131.421 94.9595H256.653C258.072 94.9611 259.433 95.5267 260.437 96.5321C261.44 97.5375 262.005 98.9007 262.006 100.323V140.627C262.005 142.049 261.44 143.412 260.437 144.418C259.433 145.423 258.072 145.988 256.653 145.99Z" fill="white"/>
<path d="M160.241 110.074C157.488 110.074 154.847 111.169 152.9 113.12C150.953 115.071 149.859 117.716 149.859 120.475C149.859 123.233 150.953 125.879 152.9 127.829C154.847 129.78 157.488 130.876 160.241 130.876C162.994 130.876 165.635 129.78 167.582 127.83C169.529 125.879 170.623 123.233 170.623 120.475C170.623 117.716 169.529 115.071 167.582 113.12C165.635 111.17 162.994 110.074 160.241 110.074Z" fill="#73CB1B"/>
<path d="M235.62 129.251H181.115C180.426 129.251 179.766 128.977 179.279 128.489C178.793 128.002 178.519 127.34 178.519 126.651C178.519 125.961 178.793 125.299 179.279 124.812C179.766 124.324 180.426 124.05 181.115 124.05H235.62C236.308 124.05 236.968 124.324 237.455 124.812C237.942 125.299 238.215 125.961 238.215 126.651C238.215 127.34 237.942 128.002 237.455 128.489C236.968 128.977 236.308 129.251 235.62 129.251Z" fill="#CCCCCC"/>
<path d="M198.31 118.2H181.115C180.426 118.2 179.766 117.926 179.279 117.438C178.793 116.95 178.519 116.289 178.519 115.599C178.519 114.91 178.793 114.248 179.279 113.761C179.766 113.273 180.426 112.999 181.115 112.999H198.31C198.998 112.999 199.658 113.273 200.145 113.761C200.632 114.248 200.905 114.91 200.905 115.599C200.905 116.289 200.632 116.95 200.145 117.438C199.658 117.926 198.998 118.2 198.31 118.2Z" fill="#CCCCCC"/>
<path d="M256.653 145.99H131.421C130.002 145.988 128.641 145.423 127.638 144.418C126.634 143.412 126.07 142.049 126.068 140.627V100.323C126.07 98.9007 126.634 97.5375 127.638 96.5321C128.641 95.5267 130.002 94.9611 131.421 94.9595H256.653C258.072 94.9611 259.433 95.5267 260.437 96.5321C261.44 97.5375 262.005 98.9007 262.006 100.323V140.627C262.005 142.049 261.44 143.412 260.437 144.418C259.433 145.423 258.072 145.988 256.653 145.99ZM131.421 95.2846C130.088 95.2861 128.81 95.8174 127.867 96.7618C126.924 97.7063 126.394 98.9869 126.392 100.323V140.627C126.394 141.963 126.924 143.243 127.867 144.188C128.81 145.132 130.088 145.664 131.421 145.665H256.653C257.986 145.664 259.265 145.132 260.207 144.188C261.15 143.243 261.68 141.963 261.682 140.627V100.323C261.68 98.9869 261.15 97.7063 260.207 96.7618C259.265 95.8174 257.986 95.2861 256.653 95.2846H131.421Z" fill="#3F3D56"/>
<path d="M159.256 124.794C158.983 124.795 158.717 124.706 158.498 124.542L158.484 124.532L155.629 122.344C155.363 122.139 155.188 121.836 155.144 121.502C155.1 121.168 155.191 120.83 155.395 120.562C155.6 120.295 155.902 120.12 156.235 120.076C156.569 120.031 156.906 120.122 157.173 120.326L159.023 121.747L163.392 116.035C163.494 115.903 163.62 115.792 163.764 115.708C163.909 115.625 164.068 115.571 164.233 115.549C164.398 115.527 164.566 115.538 164.727 115.581C164.888 115.624 165.038 115.699 165.171 115.8L165.171 115.8L165.144 115.838L165.172 115.8C165.438 116.006 165.613 116.309 165.657 116.643C165.701 116.977 165.611 117.315 165.406 117.582L160.266 124.297C160.147 124.452 159.994 124.577 159.819 124.663C159.644 124.749 159.452 124.794 159.257 124.793L159.256 124.794Z" fill="white"/>
<path d="M315.676 237H0.324435C0.23839 237 0.155868 236.966 0.0950247 236.905C0.0341812 236.844 0 236.761 0 236.675C0 236.589 0.0341812 236.506 0.0950247 236.445C0.155868 236.384 0.23839 236.35 0.324435 236.35H315.676C315.762 236.35 315.844 236.384 315.905 236.445C315.966 236.506 316 236.589 316 236.675C316 236.761 315.966 236.844 315.905 236.905C315.844 236.966 315.762 237 315.676 237Z" fill="#CCCCCC"/>
</g>
<defs>
<clipPath id="clip0_15_420">
<rect width="316" height="237" fill="white"/>
</clipPath>
</defs>
</svg>
