<svg width="390" height="216" viewBox="0 0 390 216" fill="none" xmlns="http://www.w3.org/2000/svg">
<g clip-path="url(#clip0_15_456)">
<path d="M0 215.284C0 215.669 0.439333 215.975 0.989525 215.975H389.01C389.557 215.975 390 215.669 390 215.284C390 214.9 389.561 214.593 389.01 214.593H0.989525C0.443438 214.593 0 214.9 0 215.284Z" fill="#2F2E43"/>
<path d="M305.71 0H61.2725C58.0247 0 55.3846 2.63021 55.3846 5.86581V169.041C55.3846 172.276 58.0247 174.907 61.2725 174.907H305.71C308.958 174.907 311.598 172.276 311.598 169.041V5.86581C311.598 2.63021 308.958 0 305.71 0Z" fill="#D7D7D8"/>
<path d="M306.781 5.50995H61.9869V143.446H306.781V5.50995Z" fill="white"/>
<path d="M311.598 149.488V169.041C311.598 172.276 308.958 174.907 305.71 174.907H61.2725C58.0247 174.907 55.3846 172.276 55.3846 169.041V149.488H311.598Z" fill="#2F2E41"/>
<path d="M214.719 171.176H154.054V215.26H214.719V171.176Z" fill="#2F2E41"/>
<path d="M214.891 209.746H153.873V211.525H214.891V209.746Z" fill="#D7D7D8"/>
<path d="M270.325 18.4973V21.5938H97.0186V18.4973C97.0186 16.8366 98.3694 15.4908 100.036 15.4908H267.307C268.974 15.4908 270.325 16.8366 270.325 18.4973Z" fill="#D7D7D8"/>
<path d="M100.71 19.3891C101.2 19.3891 101.597 18.9935 101.597 18.5055C101.597 18.0175 101.2 17.6219 100.71 17.6219C100.22 17.6219 99.8229 18.0175 99.8229 18.5055C99.8229 18.9935 100.22 19.3891 100.71 19.3891Z" fill="white"/>
<path d="M103.662 19.3891C104.152 19.3891 104.549 18.9935 104.549 18.5055C104.549 18.0175 104.152 17.6219 103.662 17.6219C103.172 17.6219 102.775 18.0175 102.775 18.5055C102.775 18.9935 103.172 19.3891 103.662 19.3891Z" fill="white"/>
<path d="M106.61 19.3891C107.1 19.3891 107.497 18.9935 107.497 18.5055C107.497 18.0175 107.1 17.6219 106.61 17.6219C106.12 17.6219 105.723 18.0175 105.723 18.5055C105.723 18.9935 106.12 19.3891 106.61 19.3891Z" fill="white"/>
<path d="M251.216 24.8254H114.21C112.947 24.8254 111.923 25.8455 111.923 27.1038C111.923 28.3621 112.947 29.3822 114.21 29.3822H251.216C252.479 29.3822 253.503 28.3621 253.503 27.1038C253.503 25.8455 252.479 24.8254 251.216 24.8254Z" fill="#D7D7D8"/>
<path d="M157.458 78.8489H126.959C125.119 78.8489 123.621 77.3559 123.621 75.5233V49.5485C123.621 47.7159 125.119 46.2229 126.959 46.2229H157.458C159.297 46.2229 160.796 47.7159 160.796 49.5485V75.5233C160.796 77.3559 159.297 78.8489 157.458 78.8489ZM126.959 47.2414C125.682 47.2414 124.647 48.2763 124.647 49.5444V75.5192C124.647 76.7914 125.686 77.8222 126.959 77.8222H157.458C158.735 77.8222 159.769 76.7873 159.769 75.5192V49.5444C159.769 48.2723 158.73 47.2414 157.458 47.2414H126.959Z" fill="#D7D7D8"/>
<path d="M198.923 78.8489H168.424C166.585 78.8489 165.086 77.3559 165.086 75.5233V49.5485C165.086 47.7159 166.585 46.2229 168.424 46.2229H198.923C200.763 46.2229 202.261 47.7159 202.261 49.5485V75.5233C202.261 77.3559 200.763 78.8489 198.923 78.8489ZM168.424 47.2414C167.148 47.2414 166.113 48.2763 166.113 49.5444V75.5192C166.113 76.7914 167.152 77.8222 168.424 77.8222H198.923C200.2 77.8222 201.235 76.7873 201.235 75.5192V49.5444C201.235 48.2723 200.196 47.2414 198.923 47.2414H168.424Z" fill="#D7D7D8"/>
<path d="M240.385 78.8489H209.886C208.047 78.8489 206.548 77.3559 206.548 75.5233V49.5485C206.548 47.7159 208.047 46.2229 209.886 46.2229H240.385C242.224 46.2229 243.723 47.7159 243.723 49.5485V75.5233C243.723 77.3559 242.224 78.8489 240.385 78.8489ZM209.886 47.2414C208.609 47.2414 207.574 48.2763 207.574 49.5444V75.5192C207.574 76.7914 208.613 77.8222 209.886 77.8222H240.385C241.662 77.8222 242.696 76.7873 242.696 75.5192V49.5444C242.696 48.2723 241.658 47.2414 240.385 47.2414H209.886Z" fill="#D7D7D8"/>
<path d="M157.458 119.46H126.959C125.119 119.46 123.621 117.967 123.621 116.134V90.1592C123.621 88.3267 125.119 86.8336 126.959 86.8336H157.458C159.297 86.8336 160.796 88.3267 160.796 90.1592V116.134C160.796 117.967 159.297 119.46 157.458 119.46ZM126.959 87.8522C125.682 87.8522 124.647 88.8871 124.647 90.1551V116.13C124.647 117.402 125.686 118.433 126.959 118.433H157.458C158.735 118.433 159.769 117.398 159.769 116.13V90.1551C159.769 88.883 158.73 87.8522 157.458 87.8522H126.959Z" fill="#D7D7D8"/>
<path d="M198.923 119.46H168.424C166.585 119.46 165.086 117.967 165.086 116.134V90.1592C165.086 88.3267 166.585 86.8336 168.424 86.8336H198.923C200.763 86.8336 202.261 88.3267 202.261 90.1592V116.134C202.261 117.967 200.763 119.46 198.923 119.46ZM168.424 87.8522C167.148 87.8522 166.113 88.8871 166.113 90.1551V116.13C166.113 117.402 167.152 118.433 168.424 118.433H198.923C200.2 118.433 201.235 117.398 201.235 116.13V90.1551C201.235 88.883 200.196 87.8522 198.923 87.8522H168.424Z" fill="#D7D7D8"/>
<path d="M240.385 119.46H209.886C208.047 119.46 206.548 117.967 206.548 116.134V90.1592C206.548 88.3267 208.047 86.8336 209.886 86.8336H240.385C242.224 86.8336 243.723 88.3267 243.723 90.1592V116.134C243.723 117.967 242.224 119.46 240.385 119.46Z" fill="#73CB1B"/>
<path d="M322.946 61.6278L327.984 57.7214C327.984 57.7214 333.733 59.5048 333.88 59.5785C334.028 59.6521 342.803 79.9247 342.803 79.9247C342.803 79.9247 320.327 91.3864 321.969 90.2656C323.611 89.1529 323.271 74.0466 321.743 72.0791C320.212 70.1075 321.517 65.1579 321.517 65.1579L322.934 61.6237H322.942L322.946 61.6278Z" fill="#2F2E43"/>
<path d="M336.874 70.762H330.046V81.5609L337.576 79.0944L336.874 70.762Z" fill="#F3A3A6"/>
<path d="M314.554 140.403C314.73 139.417 314.661 138.399 314.349 137.433L316.73 127.236L311.651 126.176L309.787 136.636C309.179 137.437 308.785 138.378 308.637 139.368C308.227 141.843 309.224 144.085 310.859 144.367C312.493 144.653 314.147 142.878 314.558 140.403H314.554Z" fill="#F3A3A6"/>
<path d="M334.743 199.994H327.689V209.962H334.743V199.994Z" fill="#F3A3A6"/>
<path d="M320.824 216C323.919 216 328.44 215.677 328.473 215.673C329.684 215.779 335.72 216.254 336.02 214.879C336.295 213.615 335.888 212.294 335.831 212.11C335.248 206.363 335.034 206.293 334.903 206.256C334.697 206.195 334.098 206.481 333.125 207.107L333.063 207.148L333.051 207.218C333.035 207.303 332.603 209.414 330.559 209.095C329.159 208.874 328.703 208.563 328.559 208.412C328.678 208.359 328.826 208.265 328.929 208.105C329.081 207.872 329.105 207.569 329.007 207.205C328.744 206.252 327.956 204.841 327.923 204.78L327.832 204.62L319.818 210.007L314.866 211.419C314.492 211.521 314.193 211.791 314.041 212.147C313.831 212.642 313.959 213.222 314.365 213.582C315.264 214.388 317.054 215.767 318.927 215.939C319.423 215.984 320.085 216.004 320.828 216.004L320.824 216Z" fill="#2F2E43"/>
<path d="M354.827 192.165L348.842 195.884L354.137 204.342L360.122 200.624L354.827 192.165Z" fill="#F3A3A6"/>
<path d="M346.876 214.638C347.861 214.638 348.949 214.499 349.865 214.037C352.176 212.879 357.797 208.809 357.83 208.78C358.91 208.236 364.285 205.455 363.808 204.129C363.369 202.91 362.322 202.002 362.178 201.879C358.631 197.306 358.417 197.364 358.286 197.4C358.077 197.458 357.723 198.014 357.227 199.057L357.198 199.122L357.227 199.188C357.259 199.274 358.015 201.29 356.11 202.092C354.804 202.644 354.254 202.624 354.053 202.567C354.127 202.456 354.201 202.301 354.205 202.109C354.213 201.83 354.073 201.556 353.794 201.303C353.063 200.632 351.647 199.851 351.585 199.818L351.425 199.732L347.483 208.531L344.03 212.335C343.767 212.621 343.657 213.006 343.718 213.39C343.804 213.922 344.223 214.343 344.757 214.437C345.299 214.531 346.059 214.634 346.888 214.634L346.876 214.638Z" fill="#2F2E43"/>
<path d="M339.937 116.625C339.937 116.625 342.224 116.625 345.808 123.767C349.393 130.913 344.831 159.588 344.831 159.588L357.6 192.508L348.641 198.758L332.287 163.498L336.319 202.554H326.239L318.397 134.93L320.187 116.629H339.937V116.625Z" fill="#2F2E43"/>
<path d="M341.472 77.3436H327.808L315.486 117.742H349.758L341.472 77.3436Z" fill="#73CB1B"/>
<path d="M329.967 77.3477L316.077 134.705H309.13C309.13 134.705 319.658 81.5896 320.557 79.3561C321.452 77.1227 329.963 77.3477 329.963 77.3477H329.967Z" fill="#73CB1B"/>
<path d="M330.978 73.748C335.123 73.748 338.483 70.4003 338.483 66.2706C338.483 62.1409 335.123 58.7931 330.978 58.7931C326.832 58.7931 323.472 62.1409 323.472 66.2706C323.472 70.4003 326.832 73.748 330.978 73.748Z" fill="#F3A3A6"/>
<path d="M321.628 64.9084L323.468 65.2193C325.184 58.3718 329.072 60.6093 329.442 60.5316C329.811 60.4538 335.338 66.4792 334.89 72.5822C334.443 78.6812 342.359 81.5405 342.359 81.5405C342.359 81.5405 345.126 86.7191 342.659 96.0905C340.191 105.462 345.422 108.607 345.422 108.607C355.728 107.736 349.532 93.4112 347.89 90.8096C346.247 88.2039 347.368 83.6675 347.368 83.6675C349.91 81.4341 346.921 76.5255 346.921 76.5255C346.921 76.5255 347.446 69.9766 345.878 68.7126C344.309 67.4486 344.235 64.3235 344.235 64.3235C341.468 52.3464 332.435 54.6535 332.435 54.6535C320.861 53.3895 321.632 64.9043 321.632 64.9043L321.628 64.9084Z" fill="#2F2E43"/>
<path d="M355.609 139.205C355.42 138.219 354.993 137.29 354.357 136.501L352.944 126.123L347.816 126.933L349.799 137.372C349.524 138.337 349.491 139.352 349.701 140.334C350.197 142.792 351.926 144.53 353.556 144.22C355.186 143.909 356.106 141.663 355.605 139.205H355.609Z" fill="#F3A3A6"/>
<path d="M348.374 134.03H355.322C355.322 134.03 344.794 80.9146 343.895 78.6812C343 76.4478 335.502 77.3968 335.502 77.3968L348.374 134.03Z" fill="#73CB1B"/>
</g>
<defs>
<clipPath id="clip0_15_456">
<rect width="390" height="216" fill="white"/>
</clipPath>
</defs>
</svg>
