<svg width="310" height="242" viewBox="0 0 310 242" fill="none" xmlns="http://www.w3.org/2000/svg">
<g clip-path="url(#clip0_23_605)">
<path d="M282.181 220.921C276.238 227.247 269.429 232.709 261.954 237.146C261.782 237.251 261.608 237.35 261.433 237.451L249.331 226.801C249.458 226.684 249.599 226.552 249.751 226.407C258.768 217.894 303.533 158.37 306.516 143.875C306.31 145.083 309.207 192.439 282.181 220.921Z" fill="#F0F0F0"/>
<path d="M264.289 239.201C264.06 239.256 263.827 239.306 263.594 239.353L254.515 231.363C254.692 231.301 254.899 231.228 255.137 231.147C259.032 229.776 270.634 225.635 282.18 220.92C294.586 215.851 306.933 210.123 309.589 206.454C309.019 207.307 291.473 233.157 264.289 239.201Z" fill="#F0F0F0"/>
<path d="M282.013 63.3791H280.72V28.1616C280.72 25.4849 280.19 22.8344 279.16 20.3614C278.13 17.8884 276.62 15.6414 274.716 13.7487C272.812 11.856 270.553 10.3546 268.065 9.33025C265.578 8.30591 262.913 7.77869 260.22 7.77869H185.179C182.487 7.77868 179.822 8.30589 177.334 9.33023C174.847 10.3546 172.587 11.856 170.684 13.7487C168.78 15.6414 167.27 17.8884 166.24 20.3614C165.21 22.8343 164.68 25.4848 164.68 28.1616V221.367C164.68 224.044 165.21 226.695 166.24 229.168C167.27 231.641 168.78 233.888 170.684 235.78C172.587 237.673 174.847 239.175 177.334 240.199C179.822 241.223 182.487 241.75 185.179 241.75H260.22C262.912 241.75 265.578 241.223 268.065 240.199C270.553 239.175 272.812 237.673 274.716 235.78C276.62 233.888 278.13 231.641 279.16 229.168C280.19 226.695 280.72 224.044 280.72 221.368V88.4475H282.013V63.3791Z" fill="#3F3D56"/>
<path d="M276.357 28.3016V221.226C276.357 223.225 275.96 225.205 275.191 227.051C274.421 228.898 273.293 230.576 271.872 231.989C270.45 233.403 268.762 234.524 266.904 235.288C265.046 236.053 263.056 236.446 261.045 236.445H185.643C183.633 236.445 181.642 236.052 179.785 235.287C177.928 234.522 176.241 233.401 174.82 231.988C173.398 230.575 172.271 228.897 171.502 227.05C170.732 225.204 170.337 223.225 170.337 221.226V28.3016C170.337 26.303 170.732 24.324 171.502 22.4775C172.271 20.631 173.398 18.9533 174.82 17.5401C176.241 16.1269 177.928 15.0059 179.785 14.2411C181.642 13.4764 183.633 13.0829 185.643 13.083H194.793C194.344 14.1811 194.173 15.3722 194.296 16.5514C194.418 17.7306 194.83 18.8619 195.495 19.8456C196.16 20.8294 197.059 21.6356 198.111 22.1933C199.163 22.7509 200.337 23.043 201.529 23.0438H244.518C245.711 23.0449 246.886 22.7541 247.939 22.1969C248.992 21.6398 249.891 20.8335 250.557 19.8491C251.223 18.8648 251.634 17.7327 251.756 16.5527C251.877 15.3727 251.705 14.1811 251.254 13.083H261.045C263.056 13.0823 265.046 13.4754 266.904 14.2399C268.762 15.0044 270.45 16.1252 271.872 17.5385C273.293 18.9517 274.421 20.6297 275.191 22.4764C275.96 24.3232 276.357 26.3026 276.357 28.3016Z" fill="white"/>
<path d="M252.902 128.556H186.625C185.464 128.554 184.351 128.095 183.531 127.279C182.71 126.463 182.248 125.356 182.247 124.202V122.035C182.248 120.881 182.71 119.774 183.531 118.958C184.351 118.142 185.464 117.683 186.625 117.682H252.902C254.062 117.683 255.175 118.142 255.996 118.958C256.817 119.774 257.279 120.881 257.28 122.035V124.202C257.279 125.356 256.817 126.463 255.996 127.279C255.175 128.095 254.062 128.554 252.902 128.556Z" fill="#F0F0F0"/>
<path d="M252.902 147.236H186.625C185.464 147.234 184.351 146.775 183.531 145.959C182.71 145.143 182.248 144.036 182.247 142.882V140.715C182.248 139.561 182.71 138.454 183.531 137.638C184.351 136.822 185.464 136.363 186.625 136.361H252.902C254.062 136.363 255.175 136.822 255.996 137.638C256.817 138.454 257.279 139.561 257.28 140.715V142.882C257.279 144.036 256.817 145.143 255.996 145.959C255.175 146.775 254.062 147.234 252.902 147.236Z" fill="#F0F0F0"/>
<path d="M256.217 124.378H189.941C188.722 124.377 187.553 123.894 186.691 123.037C185.829 122.181 185.344 121.019 185.343 119.807V117.64C185.344 116.428 185.829 115.266 186.691 114.409C187.553 113.552 188.722 113.07 189.941 113.068H256.217C257.436 113.07 258.604 113.552 259.466 114.409C260.328 115.266 260.813 116.428 260.814 117.64V119.807C260.813 121.019 260.328 122.181 259.466 123.037C258.604 123.894 257.436 124.377 256.217 124.378ZM189.941 113.939C188.954 113.94 188.008 114.33 187.31 115.024C186.612 115.718 186.22 116.659 186.219 117.64V119.807C186.22 120.788 186.612 121.728 187.31 122.422C188.008 123.116 188.954 123.506 189.941 123.507H256.217C257.204 123.506 258.15 123.116 258.847 122.422C259.545 121.728 259.938 120.788 259.939 119.807V117.64C259.938 116.659 259.545 115.718 258.847 115.024C258.15 114.33 257.204 113.94 256.217 113.939H189.941Z" fill="#3F3D56"/>
<path d="M256.217 143.058H189.941C188.722 143.056 187.553 142.574 186.691 141.717C185.829 140.86 185.344 139.698 185.343 138.487V136.32C185.344 135.108 185.829 133.946 186.691 133.089C187.553 132.232 188.722 131.75 189.941 131.748H256.217C257.436 131.75 258.604 132.232 259.466 133.089C260.328 133.946 260.813 135.108 260.814 136.32V138.487C260.813 139.698 260.328 140.86 259.466 141.717C258.604 142.574 257.436 143.056 256.217 143.058ZM189.941 132.619C188.954 132.62 188.008 133.01 187.31 133.704C186.612 134.398 186.22 135.338 186.219 136.32V138.487C186.22 139.468 186.612 140.408 187.31 141.102C188.008 141.796 188.954 142.186 189.941 142.187H256.217C257.204 142.186 258.15 141.796 258.847 141.102C259.545 140.408 259.938 139.468 259.939 138.487V136.32C259.938 135.338 259.545 134.398 258.847 133.704C258.15 133.01 257.204 132.62 256.217 132.619H189.941Z" fill="#3F3D56"/>
<path d="M276.357 28.3016V70.2654C269.65 72.0197 262.629 72.2209 255.832 70.8537C249.036 69.4865 242.645 66.5873 237.152 62.3792C231.659 58.171 227.21 52.766 224.148 46.5801C221.085 40.3941 219.491 33.5921 219.487 26.6974C219.487 25.4667 219.537 24.2488 219.636 23.0438H244.518C245.711 23.0449 246.886 22.7541 247.939 22.1969C248.992 21.6398 249.891 20.8335 250.557 19.8491C251.223 18.8648 251.634 17.7327 251.756 16.5527C251.878 15.3727 251.705 14.1811 251.254 13.083H261.045C263.056 13.0823 265.047 13.4754 266.904 14.2399C268.762 15.0044 270.45 16.1252 271.872 17.5385C273.294 18.9517 274.421 20.6297 275.191 22.4764C275.96 24.3232 276.357 26.3026 276.357 28.3016Z" fill="#F0F0F0"/>
<path d="M208.436 233.824C208.436 234.709 208.403 235.582 208.331 236.445H185.643C183.633 236.445 181.642 236.052 179.785 235.287C177.928 234.522 176.241 233.401 174.82 231.988C173.398 230.575 172.271 228.897 171.502 227.05C170.732 225.204 170.337 223.225 170.337 221.226V200.591C175.093 199.976 179.925 200.375 184.514 201.764C189.102 203.152 193.339 205.496 196.945 208.641C200.55 211.786 203.439 215.658 205.421 220.001C207.402 224.343 208.43 229.056 208.436 233.824Z" fill="#73CB1B"/>
<path d="M25.4486 197.616C26.0861 197.895 26.8088 197.911 27.4582 197.661C28.1076 197.41 28.6306 196.914 28.9125 196.281L49.3512 150.223C49.819 149.169 49.9619 148.001 49.7619 146.866C49.5619 145.731 49.0279 144.681 48.2276 143.848C47.4272 143.015 46.3963 142.436 45.2653 142.186C44.1344 141.935 42.9541 142.024 41.8738 142.44C40.6257 142.914 39.5812 143.804 38.9182 144.957C38.8127 145.139 38.717 145.327 38.6316 145.52L18.1929 191.578C18.0536 191.892 17.9779 192.23 17.97 192.573C17.9621 192.916 18.0222 193.257 18.1469 193.577C18.2717 193.897 18.4585 194.189 18.6969 194.437C18.9352 194.685 19.2203 194.884 19.536 195.022L25.4486 197.616Z" fill="#73CB1B"/>
<path d="M48.512 169.132L28.2956 164.665L33.2994 151.503C34.1518 148.286 36.1356 145.479 38.8909 143.592C41.6462 141.705 44.9905 140.862 48.3173 141.216L48.5121 141.238L48.512 169.132Z" fill="#2F2E41"/>
<path d="M89.3461 198.275C88.7515 198.274 88.1699 198.102 87.6717 197.779C87.1734 197.456 86.7799 196.997 86.5387 196.456L66.1 150.398C65.45 148.933 65.3896 147.276 65.9312 145.767C66.4728 144.259 67.5752 143.014 69.0116 142.289C70.448 141.564 72.1092 141.415 73.6534 141.87C75.1976 142.326 76.5073 143.353 77.3132 144.74C77.4265 144.936 77.5292 145.138 77.6208 145.344L98.0595 191.402C98.3876 192.142 98.4068 192.98 98.113 193.734C97.8191 194.488 97.2363 195.094 96.4926 195.421L90.3795 198.102L90.3764 198.095C90.046 198.214 89.6974 198.275 89.3461 198.275Z" fill="#73CB1B"/>
<path d="M61.0741 182.459C60.3776 182.46 59.7099 182.735 59.2173 183.225C58.7248 183.714 58.4478 184.378 58.447 185.071V238.626C58.4478 239.318 58.7248 239.982 59.2173 240.472C59.7099 240.962 60.3776 241.237 61.0741 241.238H67.5366C68.2332 241.237 68.9009 240.962 69.3934 240.472C69.886 239.982 70.163 239.318 70.1638 238.626V185.071C70.163 184.378 69.886 183.714 69.3934 183.225C68.9009 182.735 68.2332 182.46 67.5366 182.459H61.0741Z" fill="#73CB1B"/>
<path d="M48.2922 182.459C47.5956 182.46 46.9279 182.735 46.4354 183.225C45.9428 183.714 45.6658 184.378 45.665 185.071V238.626C45.6658 239.318 45.9428 239.982 46.4354 240.472C46.9279 240.962 47.5956 241.237 48.2922 241.238H54.7548C55.4513 241.237 56.119 240.962 56.6116 240.472C57.1041 239.982 57.3811 239.318 57.3819 238.626V185.071C57.3811 184.378 57.1041 183.714 56.6116 183.225C56.119 182.735 55.4513 182.46 54.7548 182.459H48.2922Z" fill="#73CB1B"/>
<path d="M57.7214 126.351C70.0542 126.351 80.0519 116.41 80.0519 104.148C80.0519 91.8851 70.0542 81.9444 57.7214 81.9444C45.3886 81.9444 35.3909 91.8851 35.3909 104.148C35.3909 116.41 45.3886 126.351 57.7214 126.351Z" fill="#73CB1B"/>
<path d="M65.1525 113.468C66.6 113.428 68.4015 113.378 69.7894 112.37C70.2027 112.058 70.5422 111.659 70.7843 111.202C71.0263 110.746 71.165 110.242 71.1906 109.726C71.2157 109.36 71.1552 108.993 71.0139 108.653C70.8726 108.314 70.6543 108.012 70.376 107.77C69.6511 107.161 68.5926 107.018 67.4519 107.352L68.6338 98.7639L67.7662 98.6458L66.3768 108.742L67.1013 108.411C67.9412 108.028 69.0942 107.833 69.8107 108.435C69.9867 108.592 70.1237 108.788 70.2113 109.007C70.2988 109.225 70.3344 109.461 70.3154 109.696C70.2942 110.079 70.1901 110.454 70.0102 110.794C69.8303 111.134 69.5788 111.432 69.2728 111.667C68.1928 112.451 66.7568 112.552 65.1282 112.598L65.1525 113.468Z" fill="#2F2E41"/>
<path d="M77.6408 99.5046H72.9244V100.375H77.6408V99.5046Z" fill="#2F2E41"/>
<path d="M62.7537 99.5046H58.0374V100.375H62.7537V99.5046Z" fill="#2F2E41"/>
<path d="M79.8477 198.545L71.8104 140.208C71.7242 139.582 71.4131 139.009 70.9345 138.594C70.456 138.179 69.8425 137.95 69.2075 137.95H63.1408C63.1661 137.806 63.1793 137.661 63.1802 137.515V135.338C63.1801 134.645 62.9033 133.981 62.4107 133.491C61.918 133.001 61.2498 132.726 60.553 132.726H55.2988C54.6021 132.726 53.9338 133.001 53.4412 133.491C52.9485 133.981 52.6717 134.645 52.6717 135.338V137.515C52.6726 137.661 52.6858 137.806 52.711 137.95H46.6444C46.0094 137.95 45.3958 138.179 44.9173 138.594C44.4388 139.009 44.1276 139.582 44.0414 140.208L36.0042 198.545C35.9533 198.915 35.9825 199.291 36.09 199.648C36.1975 200.006 36.3807 200.336 36.6272 200.617C36.8738 200.898 37.1781 201.123 37.5196 201.278C37.861 201.432 38.2318 201.512 38.6069 201.512H77.2449C77.62 201.512 77.9908 201.432 78.3322 201.278C78.6737 201.123 78.978 200.898 79.2246 200.617C79.4711 200.336 79.6543 200.006 79.7618 199.648C79.8693 199.291 79.8986 198.915 79.8477 198.545Z" fill="#2F2E41"/>
<path d="M67.3397 169.132V141.238L67.5345 141.216C70.8653 140.862 74.2134 141.708 76.9705 143.6C79.7275 145.491 81.7107 148.304 82.5596 151.526L87.5561 164.665L67.3397 169.132Z" fill="#2F2E41"/>
<path d="M56.5968 127.043L41.1514 121.083C38.6257 120.108 36.0859 119.163 33.5736 118.155C32.4975 117.782 31.5062 117.201 30.6569 116.445C29.9174 115.667 29.4135 114.697 29.2027 113.647C28.667 111.396 28.7639 108.934 28.8021 106.637C28.8317 104.124 29.0397 101.615 29.4246 99.1312C30.0991 94.4628 31.6831 89.9701 34.0878 85.9049C38.4194 78.8384 45.8824 73.5218 54.4668 73.9461C58.4411 74.1425 62.4382 75.5605 65.391 78.2622C65.699 78.6282 66.0446 78.9612 66.4221 79.2559C66.6846 79.3538 66.9701 79.3728 67.2434 79.3107C67.6037 79.2877 67.9644 79.2701 68.3253 79.2579C69.5776 79.2054 70.8322 79.2577 72.0757 79.4144C74.3419 79.6578 76.4897 80.5445 78.2627 81.9687C79.7384 83.2309 80.939 85.0126 81.0626 86.9927C81.1222 87.9016 80.9711 88.8121 80.6208 89.6538C80.2705 90.4955 79.7304 91.2459 79.0422 91.8471C77.1995 93.3913 74.5704 92.8486 72.36 92.7321L64.2624 92.3056L60.1597 92.0895C59.3149 92.045 59.3173 93.3511 60.1597 93.3955L71.0644 93.97C72.8167 94.0622 74.6228 94.2885 76.3766 94.184C77.7242 94.1233 79.0109 93.6086 80.0253 92.7245C80.9517 91.8783 81.6418 90.8079 82.0283 89.6175C82.4148 88.4272 82.4845 87.1576 82.2306 85.9325C81.6684 83.2605 79.6684 81.0501 77.3237 79.7351C74.1335 77.9459 70.3233 77.7745 66.7536 78.039L67.218 78.2303C63.18 73.9211 56.9948 72.1016 51.1881 72.7383C45.0572 73.4106 39.6042 76.8115 35.6863 81.4618C31.3181 86.6466 28.9377 93.1117 28.0123 99.7597C27.5307 103.349 27.3722 106.974 27.5385 110.591C27.5317 112.187 27.8062 113.771 28.3496 115.272C28.9695 116.733 30.0905 117.928 31.5131 118.644C33.1441 119.427 34.8208 120.112 36.5343 120.695L42.2248 122.891L53.4024 127.205L56.2476 128.303C57.0361 128.607 57.3777 127.345 56.5968 127.043Z" fill="#2F2E41"/>
<path d="M32.3115 82.6598C30.9692 82.6598 29.6571 82.2641 28.541 81.5226C27.4249 80.7811 26.5551 79.7272 26.0414 78.4942C25.5277 77.2612 25.3933 75.9044 25.6552 74.5954C25.9171 73.2864 26.5634 72.084 27.5126 71.1403C28.4617 70.1965 29.671 69.5539 30.9875 69.2935C32.304 69.0331 33.6686 69.1667 34.9087 69.6775C36.1488 70.1882 37.2087 71.0531 37.9545 72.1628C38.7002 73.2725 39.0982 74.5772 39.0982 75.9118C39.0962 77.7009 38.3805 79.4161 37.1082 80.6812C35.8359 81.9462 34.1108 82.6578 32.3115 82.6598ZM32.3115 70.4699C31.229 70.4699 30.1708 70.7891 29.2708 71.387C28.3707 71.985 27.6692 72.8349 27.255 73.8293C26.8407 74.8237 26.7323 75.9179 26.9435 76.9735C27.1547 78.0291 27.676 78.9988 28.4414 79.7599C29.2068 80.5209 30.1821 81.0392 31.2437 81.2492C32.3054 81.4592 33.4059 81.3514 34.406 80.9395C35.4061 80.5276 36.2609 79.8301 36.8623 78.9352C37.4637 78.0403 37.7847 76.9881 37.7847 75.9118C37.783 74.469 37.2059 73.0858 36.1798 72.0656C35.1538 71.0454 33.7626 70.4715 32.3115 70.4699Z" fill="#2F2E41"/>
<path d="M145.761 124.478L131.072 113.307L119.837 127.913L134.526 139.084L145.761 124.478Z" fill="#F0F0F0"/>
<path d="M62.7423 24.7576C65.0633 24.7557 67.3524 25.2943 69.4264 26.3302C71.5004 27.3661 73.3016 28.8705 74.6858 30.7229L83.2632 19.5718L57.5268 0L37.8428 25.5898L48.9352 34.0252C50.0452 31.2878 51.9528 28.9429 54.4131 27.2916C56.8734 25.6402 59.7739 24.7578 62.7423 24.7576Z" fill="#F0F0F0"/>
<path d="M309.562 242H0.437853C0.321727 242 0.210357 241.954 0.128244 241.872C0.0461305 241.791 0 241.68 0 241.565C0 241.449 0.0461305 241.338 0.128244 241.257C0.210357 241.175 0.321727 241.129 0.437853 241.129H309.562C309.678 241.129 309.79 241.175 309.872 241.257C309.954 241.338 310 241.449 310 241.565C310 241.68 309.954 241.791 309.872 241.872C309.79 241.954 309.678 242 309.562 242Z" fill="#3F3D56"/>
<path d="M234.115 169.761H202.65C201.489 169.76 200.376 169.301 199.555 168.485C198.734 167.668 198.272 166.562 198.271 165.408V163.241C198.272 162.086 198.734 160.98 199.555 160.164C200.376 159.347 201.489 158.888 202.65 158.887H234.115C235.275 158.888 236.388 159.347 237.209 160.164C238.03 160.98 238.492 162.086 238.493 163.241V165.408C238.492 166.562 238.03 167.668 237.209 168.485C236.388 169.301 235.275 169.76 234.115 169.761Z" fill="#73CB1B"/>
<path d="M237.43 165.584H205.965C204.746 165.582 203.577 165.1 202.715 164.243C201.854 163.386 201.369 162.224 201.367 161.012V158.845C201.369 157.633 201.854 156.472 202.715 155.615C203.577 154.758 204.746 154.276 205.965 154.274H237.43C238.649 154.276 239.817 154.758 240.679 155.615C241.541 156.472 242.026 157.633 242.027 158.845V161.012C242.026 162.224 241.541 163.386 240.679 164.243C239.817 165.1 238.649 165.582 237.43 165.584ZM205.965 155.145C204.978 155.146 204.032 155.536 203.334 156.23C202.637 156.924 202.244 157.864 202.243 158.845V161.012C202.244 161.994 202.637 162.934 203.334 163.628C204.032 164.322 204.978 164.712 205.965 164.713H237.43C238.417 164.712 239.363 164.322 240.06 163.628C240.758 162.934 241.151 161.994 241.152 161.012V158.845C241.151 157.864 240.758 156.924 240.06 156.23C239.363 155.536 238.417 155.146 237.43 155.145H205.965Z" fill="#3F3D56"/>
</g>
<defs>
<clipPath id="clip0_23_605">
<rect width="310" height="242" fill="white"/>
</clipPath>
</defs>
</svg>
