<svg width="445" height="220" viewBox="0 0 445 220" fill="none" xmlns="http://www.w3.org/2000/svg">
<rect x="250" y="125" width="20" height="20" fill="#3B8254"/>
<rect x="275" y="125" width="20" height="20" fill="#3B8254"/>
<rect x="300" y="125" width="20" height="20" fill="#3B8254"/>
<rect x="325" y="125" width="20" height="20" fill="#3B8254"/>
<rect x="350" y="125" width="20" height="20" fill="#3B8254"/>
<rect x="375" y="125" width="20" height="20" fill="#3B8254"/>
<rect x="400" y="125" width="20" height="20" fill="#3B8254"/>
<rect x="425" y="125" width="20" height="20" fill="#3B8254"/>
<rect x="300" y="150" width="20" height="20" fill="#3B8254"/>
<rect x="325" y="150" width="20" height="20" fill="#3B8254"/>
<rect x="350" y="150" width="20" height="20" fill="#3B8254"/>
<rect x="375" y="150" width="20" height="20" fill="#3B8254"/>
<rect x="400" y="150" width="20" height="20" fill="#3B8254"/>
<rect x="425" y="150" width="20" height="20" fill="#3B8254"/>
<rect x="350" y="175" width="20" height="20" fill="#3B8254"/>
<rect x="375" y="175" width="20" height="20" fill="#3B8254"/>
<rect x="400" y="175" width="20" height="20" fill="#3B8254"/>
<rect x="425" y="175" width="20" height="20" fill="#3B8254"/>
<rect x="400" y="200" width="20" height="20" fill="#3B8254"/>
<rect x="425" y="200" width="20" height="20" fill="#3B8254"/>
<rect x="250" y="100" width="20" height="20" fill="#3B8254"/>
<rect x="275" y="100" width="20" height="20" fill="#3B8254"/>
<rect x="300" y="100" width="20" height="20" fill="#3B8254"/>
<rect x="325" y="100" width="20" height="20" fill="#3B8254"/>
<rect x="350" y="100" width="20" height="20" fill="#3B8254"/>
<rect x="375" y="100" width="20" height="20" fill="#3B8254"/>
<rect x="400" y="100" width="20" height="20" fill="#3B8254"/>
<rect x="425" y="100" width="20" height="20" fill="#3B8254"/>
<rect x="200" y="100" width="20" height="20" fill="#3B8254"/>
<rect x="225" y="100" width="20" height="20" fill="#3B8254"/>
<rect x="250" y="75" width="20" height="20" fill="#3B8254"/>
<rect x="275" y="75" width="20" height="20" fill="#3B8254"/>
<rect x="300" y="75" width="20" height="20" fill="#3B8254"/>
<rect x="325" y="75" width="20" height="20" fill="#3B8254"/>
<rect x="350" y="75" width="20" height="20" fill="#3B8254"/>
<rect x="375" y="75" width="20" height="20" fill="#3B8254"/>
<rect x="400" y="75" width="20" height="20" fill="#3B8254"/>
<rect x="425" y="75" width="20" height="20" fill="#3B8254"/>
<rect x="200" y="75" width="20" height="20" fill="#3B8254"/>
<rect x="225" y="75" width="20" height="20" fill="#3B8254"/>
<rect x="150" y="75" width="20" height="20" fill="#3B8254"/>
<rect x="175" y="75" width="20" height="20" fill="#3B8254"/>
<rect x="250" y="50" width="20" height="20" fill="#3B8254"/>
<rect x="275" y="50" width="20" height="20" fill="#3B8254"/>
<rect x="300" y="50" width="20" height="20" fill="#3B8254"/>
<rect x="325" y="50" width="20" height="20" fill="#3B8254"/>
<rect x="350" y="50" width="20" height="20" fill="#3B8254"/>
<rect x="375" y="50" width="20" height="20" fill="#3B8254"/>
<rect x="400" y="50" width="20" height="20" fill="#3B8254"/>
<rect x="425" y="50" width="20" height="20" fill="#3B8254"/>
<rect x="200" y="50" width="20" height="20" fill="#3B8254"/>
<rect x="225" y="50" width="20" height="20" fill="#3B8254"/>
<rect x="150" y="50" width="20" height="20" fill="#3B8254"/>
<rect x="175" y="50" width="20" height="20" fill="#3B8254"/>
<rect x="100" y="50" width="20" height="20" fill="#3B8254"/>
<rect x="125" y="50" width="20" height="20" fill="#3B8254"/>
<rect x="250" y="25" width="20" height="20" fill="#3B8254"/>
<rect x="275" y="25" width="20" height="20" fill="#3B8254"/>
<rect x="300" y="25" width="20" height="20" fill="#3B8254"/>
<rect x="325" y="25" width="20" height="20" fill="#3B8254"/>
<rect x="350" y="25" width="20" height="20" fill="#3B8254"/>
<rect x="375" y="25" width="20" height="20" fill="#3B8254"/>
<rect x="400" y="25" width="20" height="20" fill="#3B8254"/>
<rect x="425" y="25" width="20" height="20" fill="#3B8254"/>
<rect x="200" y="25" width="20" height="20" fill="#3B8254"/>
<rect x="225" y="25" width="20" height="20" fill="#3B8254"/>
<rect x="150" y="25" width="20" height="20" fill="#3B8254"/>
<rect x="175" y="25" width="20" height="20" fill="#3B8254"/>
<rect x="100" y="25" width="20" height="20" fill="#3B8254"/>
<rect x="125" y="25" width="20" height="20" fill="#3B8254"/>
<rect x="50" y="25" width="20" height="20" fill="#3B8254"/>
<rect x="75" y="25" width="20" height="20" fill="#3B8254"/>
<rect x="250" width="20" height="20" fill="#3B8254"/>
<rect x="275" width="20" height="20" fill="#3B8254"/>
<rect x="300" width="20" height="20" fill="#3B8254"/>
<rect x="325" width="20" height="20" fill="#3B8254"/>
<rect x="350" width="20" height="20" fill="#3B8254"/>
<rect x="375" width="20" height="20" fill="#3B8254"/>
<rect x="400" width="20" height="20" fill="#3B8254"/>
<rect x="425" width="20" height="20" fill="#3B8254"/>
<rect x="200" width="20" height="20" fill="#3B8254"/>
<rect x="225" width="20" height="20" fill="#3B8254"/>
<rect x="150" width="20" height="20" fill="#3B8254"/>
<rect x="175" width="20" height="20" fill="#3B8254"/>
<rect x="100" width="20" height="20" fill="#3B8254"/>
<rect x="125" width="20" height="20" fill="#3B8254"/>
<rect x="50" width="20" height="20" fill="#3B8254"/>
<rect x="75" width="20" height="20" fill="#3B8254"/>
<rect width="20" height="20" fill="#3B8254"/>
<rect x="25" width="20" height="20" fill="#3B8254"/>
</svg>
